<?xml version="1.0" encoding="utf-8"?>
<!-- Designed by Vexels.com - 2020 All Rights Reserved - https://vexels.com/terms-and-conditions/  -->
<svg version="1.1" id="Capa_1" xmlns="http://www.w3.org/2000/svg" xmlns:xlink="http://www.w3.org/1999/xlink" x="0px" y="0px"
	 viewBox="0 0 1200 1200" enable-background="new 0 0 1200 1200" xml:space="preserve">
<g>
	<path fill="none" d="M353.922,590.619c-0.032-0.254-0.074-0.506-0.085-0.766C353.848,590.114,353.89,590.364,353.922,590.619z"/>
	<path fill="none" d="M354.857,593.333c-0.138-0.219-0.291-0.43-0.397-0.664C354.565,592.904,354.719,593.114,354.857,593.333z"/>
	<path fill="none" d="M354.242,592.034c-0.079-0.24-0.171-0.475-0.225-0.726C354.07,591.56,354.163,591.794,354.242,592.034z"/>
	<path fill="none" d="M354.234,586.118c0.057-0.253,0.112-0.508,0.178-0.754C354.346,585.612,354.292,585.864,354.234,586.118z"/>
	<path fill="none" d="M353.845,589.135c0.007-0.264,0.005-0.527,0.028-0.793C353.851,588.609,353.851,588.87,353.845,589.135z"/>
	<path fill="none" d="M367.188,595.714c-0.512,0.142-1.052,0.236-1.588,0.335C366.136,595.95,366.676,595.856,367.188,595.714z"/>
	<path fill="none" d="M364.772,596.216c-0.834,0.115-1.693,0.18-2.583,0.18C363.079,596.396,363.939,596.331,364.772,596.216z"/>
	<path fill="none" d="M355.819,594.466c-0.21-0.19-0.438-0.37-0.61-0.581C355.38,594.096,355.608,594.276,355.819,594.466z"/>
	<path fill="none" d="M362.189,596.396c-0.899,0-1.705-0.065-2.433-0.182C360.484,596.331,361.29,596.396,362.189,596.396z"/>
	<path fill="none" d="M354.607,584.688c0.071-0.237,0.141-0.478,0.216-0.704C354.747,584.212,354.679,584.449,354.607,584.688z"/>
	<path fill="none" d="M357.19,595.384c-0.302-0.151-0.625-0.291-0.88-0.471C356.566,595.093,356.888,595.232,357.19,595.384z"/>
	<path fill="none" d="M359.077,596.039c-0.44-0.101-0.893-0.192-1.266-0.335C358.185,595.847,358.637,595.939,359.077,596.039z"/>
	<path fill="none" d="M594.552,589.83c0.113-1.936,0.51-4.005,1.198-6.182C595.062,585.825,594.664,587.894,594.552,589.83z"/>
	<path fill="none" d="M664.315,583.648c-2.572,2.177-5.272,4.246-8.059,6.182C659.043,587.894,661.744,585.825,664.315,583.648z"/>
	<path fill="none" d="M355.043,583.353c0.074-0.207,0.148-0.418,0.223-0.611C355.191,582.937,355.119,583.144,355.043,583.353z"/>
	<path fill="none" d="M646.869,537.481c4.421-1.681,8.794-2.926,12.972-3.653C655.663,534.555,651.29,535.8,646.869,537.481z"/>
	<path fill="none" d="M667.893,533.088c-2.568,0-5.267,0.255-8.052,0.74C662.626,533.343,665.324,533.088,667.893,533.088
		L667.893,533.088z"/>
	<path fill="none" d="M597.24,599.66c-1.999-2.616-2.913-5.958-2.688-9.83C594.326,593.703,595.241,597.044,597.24,599.66z"/>
	<path fill="none" d="M355.892,581.243c0.065-0.143,0.131-0.292,0.188-0.411C356.022,580.956,355.96,581.094,355.892,581.243z"/>
	<path fill="none" d="M355.485,582.196c0.074-0.181,0.149-0.366,0.219-0.527C355.633,581.833,355.56,582.012,355.485,582.196z"/>
	<path fill="none" d="M356.221,580.538c0.05-0.101,0.103-0.212,0.139-0.281C356.321,580.332,356.277,580.422,356.221,580.538z"/>
	<path fill="none" d="M356.46,580.059c-0.005,0.011-0.027,0.054-0.037,0.071C356.437,580.105,356.458,580.066,356.46,580.059
		C356.46,580.059,356.46,580.059,356.46,580.059z"/>
	<path fill="none" d="M1011.276,657.382c-0.018,1.285-0.045,2.559-0.045,3.863c0,35.958,6.808,65.108,15.206,65.108
		C1018.343,726.352,1011.745,695.839,1011.276,657.382z"/>
	<path fill="none" d="M1026.437,726.352c8.398,0,15.206-29.15,15.206-65.108c0-1.304-0.027-2.577-0.045-3.863
		C1041.129,695.839,1034.531,726.352,1026.437,726.352z"/>
	<path fill="none" d="M776.489,494.294c16.22,1.598,34.096,4.416,53.685,8.848c0.029,0.007,0.061-0.005,0.078-0.03
		c-0.017,0.025-0.048,0.036-0.078,0.029C810.585,498.709,792.709,495.892,776.489,494.294z"/>
	<path fill="none" d="M853.332,472.66c0.564,0.138,1.093,0.295,1.581,0.455c0.051,0.017,0.099-0.018,0.084-0.07
		c0.015,0.052-0.033,0.086-0.084,0.069C854.424,472.955,853.896,472.798,853.332,472.66z"/>
	<path fill="none" d="M383.626,580.297c-0.042,0.09-0.097,0.206-0.163,0.341C383.534,580.492,383.583,580.39,383.626,580.297z"/>
	<path fill="none" d="M383.329,580.906c-0.07,0.14-0.15,0.296-0.238,0.465C383.183,581.195,383.257,581.05,383.329,580.906z"/>
	<path fill="none" d="M732.729,492.764c5.188-0.179,10.633-0.226,16.336-0.115C743.362,492.539,737.917,492.585,732.729,492.764z"/>
	<path fill="none" d="M383.704,580.128C383.704,580.128,383.704,580.128,383.704,580.128c-0.008,0.015-0.01,0.022-0.021,0.045
		C383.689,580.162,383.7,580.138,383.704,580.128z"/>
	<path fill="none" d="M496.337,405.931c0.08,0.041,0.139,0.113,0.222,0.15C496.475,406.044,496.417,405.971,496.337,405.931z"/>
	<path fill="none" d="M776.489,494.294c-9.732-0.959-18.87-1.478-27.424-1.644C757.619,492.815,766.757,493.335,776.489,494.294z"/>
	<path fill="none" d="M673.539,502.197c-2.735,0.869-5.234,1.743-7.502,2.598C668.304,503.94,670.804,503.066,673.539,502.197z"/>
	<path fill="none" d="M732.729,492.764c-5.19,0.179-10.123,0.49-14.806,0.908C722.606,493.254,727.539,492.943,732.729,492.764z"/>
	<path fill="none" d="M382.87,581.782c-0.098,0.181-0.204,0.373-0.32,0.576C382.668,582.152,382.771,581.966,382.87,581.782z"/>
	<path fill="none" d="M369.436,594.936c-0.427,0.178-0.88,0.32-1.327,0.468C368.556,595.255,369.009,595.114,369.436,594.936z"/>
	<path fill="none" d="M375.186,591.387c-0.3,0.251-0.619,0.49-0.936,0.731C374.567,591.877,374.885,591.639,375.186,591.387z"/>
	<path fill="none" d="M373.429,592.731c-0.332,0.231-0.684,0.443-1.032,0.659C372.745,593.174,373.097,592.963,373.429,592.731z"/>
	<path fill="none" d="M378.189,588.463c-0.236,0.265-0.487,0.528-0.739,0.791C377.703,588.991,377.953,588.729,378.189,588.463z"/>
	<path fill="none" d="M371.517,593.926c-0.376,0.209-0.774,0.391-1.168,0.578C370.743,594.316,371.141,594.135,371.517,593.926z"/>
	<path fill="none" d="M376.768,589.953c-0.268,0.263-0.552,0.518-0.837,0.774C376.216,590.47,376.499,590.216,376.768,589.953z"/>
	<path fill="none" d="M379.445,586.969c-0.205,0.259-0.423,0.52-0.642,0.781C379.023,587.488,379.239,587.23,379.445,586.969z"/>
	<path fill="none" d="M381.487,584.113c-0.153,0.238-0.317,0.484-0.486,0.733C381.172,584.595,381.333,584.353,381.487,584.113z"/>
	<path fill="none" d="M382.261,582.857c-0.127,0.217-0.264,0.443-0.408,0.677C381.999,583.297,382.133,583.076,382.261,582.857z"/>
	<path fill="none" d="M380.543,585.506c-0.177,0.249-0.365,0.502-0.556,0.757C380.18,586.007,380.366,585.757,380.543,585.506z"/>
	<path fill="none" d="M353.964,587.626c0.036-0.265,0.067-0.531,0.116-0.793C354.031,587.095,353.999,587.36,353.964,587.626z"/>
	<path fill="none" d="M367.654,698.21c-0.141,0.17-0.266,0.353-0.421,0.51C367.387,698.562,367.513,698.38,367.654,698.21z"/>
	<path fill="none" d="M387.39,693.628c0.008,0.186,0.061,0.357,0.083,0.539c-0.027-0.238-0.067-0.471-0.072-0.714
		C387.402,693.512,387.388,693.568,387.39,693.628z"/>
	<path fill="none" d="M369.136,691.166c0.03,0.105,0.072,0.206,0.097,0.313C369.206,691.373,369.167,691.271,369.136,691.166z"/>
	<path fill="none" d="M226.594,685.804c0.17-0.047,0.329-0.12,0.503-0.156C226.922,685.684,226.764,685.756,226.594,685.804z"/>
	<path fill="none" d="M368.507,696.939c-0.109,0.201-0.201,0.412-0.327,0.602C368.305,697.35,368.398,697.141,368.507,696.939z"/>
	<path fill="none" d="M369.096,695.514c-0.068,0.226-0.122,0.458-0.21,0.674C368.974,695.971,369.028,695.74,369.096,695.514z"/>
	<path fill="none" d="M369.454,692.922c-0.008-0.184-0.06-0.354-0.082-0.534c0.027,0.235,0.066,0.466,0.071,0.707
		C369.441,693.037,369.456,692.982,369.454,692.922z"/>
	<path fill="none" d="M387.746,691.045c0.068-0.229,0.123-0.465,0.212-0.685C387.869,690.581,387.814,690.816,387.746,691.045z"/>
	<path fill="none" d="M387.451,692.595c0.022-0.249,0.03-0.502,0.075-0.744C387.481,692.093,387.473,692.345,387.451,692.595z"/>
	<path fill="none" d="M225.08,686.407c0.18-0.095,0.348-0.21,0.536-0.291C225.428,686.197,225.261,686.312,225.08,686.407z"/>
	<path fill="none" d="M388.335,689.617c0.109-0.203,0.203-0.416,0.329-0.608C388.537,689.201,388.444,689.413,388.335,689.617z"/>
	<path fill="none" d="M222.691,688.356c0.145-0.176,0.276-0.365,0.435-0.527C222.966,687.991,222.836,688.179,222.691,688.356z"/>
	<path fill="none" d="M223.774,687.273c0.171-0.14,0.327-0.295,0.509-0.42C224.101,686.979,223.945,687.134,223.774,687.273z"/>
	<path fill="none" d="M369.392,693.965c-0.022,0.245-0.03,0.494-0.074,0.732C369.362,694.459,369.37,694.211,369.392,693.965z"/>
	<path fill="none" d="M654.137,739.535c-0.012-0.028-0.031-0.027-0.061-0.027h-48.212c-0.029,0-0.056,0.018-0.068,0.045
		c-8.111,18.811-20.158,29.454-30.128,35.4c8.11-0.013,16.221-0.06,24.331-0.058c26.81,0.004,53.62,0.113,80.43,0.279
		C664.472,763.626,654.522,740.439,654.137,739.535z"/>
	<path fill="none" d="M221.258,691.046c0.07-0.23,0.124-0.466,0.213-0.687C221.382,690.58,221.328,690.815,221.258,691.046z"/>
	<path fill="none" d="M221.843,689.626c0.111-0.207,0.207-0.423,0.335-0.619C222.05,689.203,221.953,689.419,221.843,689.626z"/>
	<path fill="none" d="M476.486,740.575c-0.013-0.024-0.033-0.028-0.06-0.028H327.947c-0.027,0-0.051,0.014-0.065,0.037
		c-13.852,23.075-27.361,33.53-37.815,38.125c11.644-0.299,23.289-0.631,34.933-0.898c60.483-1.321,120.966-2.135,181.45-2.558
		C489.454,763.697,476.987,741.477,476.486,740.575z"/>
	<path fill="none" d="M366.561,699.295c-0.163,0.133-0.312,0.281-0.486,0.401C366.249,699.576,366.399,699.427,366.561,699.295z"/>
	<path fill="none" d="M664.315,583.648c5.143-4.354,9.769-9.141,13.532-14.166c2.822-3.769,4.958-7.404,6.431-10.823
		c-1.473,3.419-3.609,7.054-6.432,10.823C674.084,574.507,669.458,579.294,664.315,583.648z"/>
	<path fill="none" d="M921.142,732.281c-0.01-0.032-0.036-0.046-0.07-0.046h-92.359c-0.03,0-0.057,0.018-0.068,0.045
		c-11.318,25.885-23.354,38.242-32.769,44.124c26.375,0.403,52.749,0.866,79.124,1.443c25.338,0.603,50.676,1.28,76.014,2.029
		C933.058,771.508,921.59,733.778,921.142,732.281z"/>
	<path fill="none" d="M220.965,692.586c0.022-0.246,0.03-0.495,0.074-0.734C220.995,692.092,220.986,692.34,220.965,692.586z"/>
	<path fill="none" d="M363.766,700.745c-0.171,0.048-0.33,0.12-0.505,0.157C363.435,700.866,363.595,700.793,363.766,700.745z"/>
	<path fill="none" d="M365.268,700.148c-0.178,0.093-0.343,0.207-0.528,0.286C364.926,700.355,365.09,700.241,365.268,700.148z"/>
	<path fill="none" d="M221.22,695.383c-0.029-0.105-0.071-0.204-0.096-0.311C221.151,695.178,221.189,695.278,221.22,695.383z"/>
	<path fill="none" d="M220.903,693.628c0.008,0.184,0.06,0.353,0.082,0.533c-0.027-0.235-0.066-0.465-0.072-0.706
		C220.915,693.513,220.9,693.569,220.903,693.628z"/>
	<path fill="none" d="M535.621,691.161c0.031,0.108,0.073,0.211,0.099,0.32C535.693,691.372,535.653,691.268,535.621,691.161z"/>
	<path fill="none" d="M535.941,692.922c-0.008-0.186-0.061-0.358-0.083-0.54c0.027,0.238,0.067,0.472,0.072,0.716
		C535.929,693.038,535.944,692.982,535.941,692.922z"/>
	<path fill="none" d="M535.584,695.51c-0.068,0.227-0.123,0.46-0.21,0.678C535.461,695.97,535.515,695.738,535.584,695.51z"/>
	<path fill="none" d="M390.264,687.27c0.169-0.139,0.325-0.293,0.506-0.417C390.589,686.978,390.434,687.132,390.264,687.27z"/>
	<path fill="none" d="M597.24,599.66c1,1.308,2.271,2.435,3.808,3.356C599.511,602.095,598.24,600.968,597.24,599.66z"/>
	<path fill="none" d="M393.09,685.801c0.167-0.047,0.322-0.117,0.494-0.153C393.412,685.684,393.257,685.754,393.09,685.801z"/>
	<path fill="none" d="M389.185,688.347c0.142-0.173,0.27-0.357,0.427-0.518C389.456,687.989,389.328,688.174,389.185,688.347z"/>
	<path fill="none" d="M535.88,693.957c-0.022,0.248-0.031,0.501-0.075,0.742C535.849,694.457,535.858,694.206,535.88,693.957z"/>
	<path fill="none" d="M531.748,700.152c-0.176,0.092-0.338,0.204-0.52,0.282C531.41,700.355,531.573,700.244,531.748,700.152z"/>
	<path fill="none" d="M533.053,699.291c-0.164,0.134-0.315,0.284-0.49,0.404C532.738,699.575,532.888,699.425,533.053,699.291z"/>
	<path fill="none" d="M530.241,700.749c-0.167,0.047-0.322,0.117-0.494,0.153C529.919,700.867,530.074,700.796,530.241,700.749z"/>
	<path fill="none" d="M534.142,698.209c-0.141,0.171-0.268,0.354-0.422,0.512C533.875,698.562,534.001,698.38,534.142,698.209z"/>
	<path fill="none" d="M534.992,696.943c-0.107,0.199-0.2,0.408-0.324,0.596C534.792,697.35,534.884,697.143,534.992,696.943z"/>
	<path fill="none" d="M387.709,695.386c-0.031-0.107-0.072-0.208-0.098-0.316C387.638,695.178,387.676,695.28,387.709,695.386z"/>
	<path fill="none" d="M391.567,686.407c0.18-0.095,0.348-0.21,0.536-0.291C391.916,686.197,391.748,686.312,391.567,686.407z"/>
	<path fill="##ffffff" d="M1003.336,781.584h8.173c0.004,0,0.003,0,0.007,0c0.195-0.03,44.673-6.938,44.673-90.906v-24.39
		c0-0.016-0.005-0.019,0.005-0.032c0.467-0.633,32.657-44.509,23.89-94.016c-8.829-49.862-52.973-73.238-80.506-74.283
		c-0.007,0-0.007,0.004-0.012-0.001c-0.324-0.34-75.509-78.995-162.071-96.619c0,0-19.898-3.551-40.349-3.551H498.261
		c-2.387,0-4.322,1.935-4.323,4.322c0,1.177,0.477,2.238,1.239,3.018c0.331,0.337,0.735,0.589,1.16,0.804
		c0.08,0.041,0.139,0.114,0.222,0.15c0.523,0.225,1.097,0.353,1.702,0.353h300.458c20.993,0.717,39.383,14.332,46.105,34.233
		c0.657,1.945,1.302,3.887,1.929,5.8c0.627,1.913,1.236,3.796,1.819,5.623c3.211,10.047,5.672,18.385,6.299,20.529
		c0.057,0.195,0.099,0.339,0.125,0.428c0.015,0.052-0.033,0.086-0.084,0.07c-0.488-0.16-1.017-0.318-1.581-0.455
		c-3.952-0.962-9.699-0.969-16.226,5.558c-7.318,7.318-2.745,18.067-2.479,18.674c0.01,0.024,0.003,0.04-0.013,0.062l-4.362,6.158
		c-0.017,0.025-0.048,0.036-0.078,0.03c-19.589-4.432-37.465-7.25-53.685-8.848c-9.732-0.959-18.87-1.478-27.424-1.644
		c-5.703-0.111-11.148-0.064-16.336,0.115c-5.19,0.179-10.123,0.49-14.806,0.908c-18.731,1.671-33.444,5.051-44.384,8.525
		c-2.735,0.869-5.234,1.743-7.502,2.598c-11.337,4.276-16.875,8.068-17.099,8.222c-0.012,0.008-0.015,0.005-0.03,0.005H351.47
		h-8.489c-0.008-0.001-0.016-0.003-0.023-0.004l-21.026-7.042c-0.004-0.001-0.007-0.002-0.011-0.003
		c-16.653-3.139-46.224-6.457-96.87-6.457c-75.282,0-121.221,72.995-117.372,129.346c68.486,0,486.839,0,486.839,0
		s19.052-2.227,38.408,3.164c14.298,3.982,16.036,23.603,2.636,29.985c-12.664,6.032-30.106,11.525-51.628,11.525
		c-47.725,0-401.479,0-401.479,0s-25.957,1.315-59.23,0.869c2.621,20.81,16.743,107.179,70.658,107.179h1.363
		c-48.415,1.755-96.831,3.964-145.246,6.97c91.667,5.691,183.334,8.635,275,10.744c91.667,2.002,183.334,2.938,275,2.916
		c91.666-0.016,183.334-0.948,275-2.953c91.666-2.18,183.333-5.015,275-10.707C1101.112,785.518,1052.224,783.328,1003.336,781.584z
		 M274.496,544.837l34.929-17.765c0.366-0.186,0.772-0.284,1.183-0.284h117.957c2.746,0,3.618,3.673,1.179,4.936
		c-6.789,3.516-13.516,7.506-19.708,11.448c-2.66,1.694-5.471-1.921-3.186-4.096l2.04-1.943c1.706-1.625,0.556-4.501-1.8-4.501
		h-93.582c-0.438,0-0.869,0.11-1.254,0.321l-10.837,5.931c-2.286,1.251-1.53,4.71,1.069,4.894l11.081,0.783
		c3.351,0.237,3.175,5.214-0.184,5.214H275.68C272.935,549.774,272.05,546.082,274.496,544.837z M383.704,580.128
		c-0.004,0.009-0.016,0.034-0.021,0.045c-0.016,0.036-0.033,0.07-0.057,0.124c-0.043,0.094-0.091,0.195-0.163,0.341
		c-0.04,0.082-0.085,0.171-0.134,0.268c-0.072,0.144-0.146,0.289-0.238,0.465c-0.068,0.13-0.142,0.266-0.221,0.412
		c-0.1,0.184-0.202,0.369-0.32,0.576c-0.091,0.161-0.187,0.325-0.29,0.498c-0.128,0.219-0.262,0.441-0.408,0.677
		c-0.117,0.19-0.238,0.38-0.366,0.58c-0.154,0.24-0.315,0.482-0.486,0.733c-0.147,0.218-0.298,0.435-0.458,0.66
		c-0.178,0.25-0.363,0.501-0.556,0.757c-0.176,0.235-0.354,0.467-0.542,0.706c-0.206,0.26-0.422,0.519-0.642,0.781
		c-0.201,0.238-0.402,0.474-0.615,0.713c-0.236,0.266-0.486,0.527-0.739,0.791c-0.224,0.235-0.446,0.467-0.682,0.698
		c-0.268,0.263-0.552,0.518-0.837,0.774c-0.246,0.223-0.488,0.444-0.746,0.66c-0.3,0.252-0.619,0.49-0.936,0.731
		c-0.271,0.207-0.537,0.416-0.821,0.613c-0.332,0.232-0.684,0.443-1.032,0.659c-0.292,0.181-0.576,0.368-0.88,0.536
		c-0.376,0.209-0.774,0.39-1.168,0.578c-0.305,0.145-0.598,0.301-0.914,0.432c-0.427,0.178-0.88,0.319-1.327,0.468
		c-0.307,0.102-0.604,0.222-0.92,0.31c-0.512,0.142-1.052,0.236-1.588,0.335c-0.279,0.052-0.543,0.127-0.828,0.167
		c-0.833,0.115-1.693,0.18-2.583,0.18c-0.899,0-1.705-0.065-2.433-0.182c-0.253-0.041-0.445-0.121-0.679-0.174
		c-0.44-0.101-0.892-0.192-1.266-0.335c-0.235-0.09-0.411-0.215-0.621-0.321c-0.302-0.152-0.625-0.291-0.88-0.471
		c-0.19-0.134-0.327-0.298-0.492-0.446c-0.21-0.19-0.438-0.37-0.61-0.581c-0.14-0.172-0.235-0.367-0.351-0.551
		c-0.138-0.219-0.292-0.43-0.397-0.664c-0.093-0.203-0.147-0.422-0.217-0.635c-0.079-0.24-0.172-0.475-0.225-0.726
		c-0.048-0.225-0.066-0.458-0.095-0.69c-0.032-0.255-0.074-0.505-0.085-0.766c-0.01-0.237,0.003-0.477,0.008-0.717
		c0.006-0.265,0.005-0.527,0.028-0.793c0.021-0.24,0.058-0.477,0.091-0.717c0.036-0.266,0.067-0.53,0.116-0.793
		c0.044-0.242,0.101-0.476,0.154-0.714c0.057-0.254,0.112-0.507,0.178-0.754c0.061-0.232,0.128-0.451,0.195-0.676
		c0.072-0.239,0.14-0.476,0.216-0.704c0.072-0.221,0.146-0.422,0.221-0.63c0.075-0.209,0.147-0.416,0.223-0.611
		c0.075-0.195,0.145-0.368,0.219-0.547c0.075-0.184,0.147-0.363,0.219-0.527c0.068-0.158,0.126-0.287,0.188-0.425
		c0.068-0.149,0.13-0.287,0.188-0.411c0.055-0.117,0.095-0.2,0.141-0.293c0.057-0.116,0.1-0.206,0.139-0.281
		c0.036-0.07,0.046-0.091,0.064-0.127c0.01-0.017,0.031-0.061,0.037-0.071c0,0,0,0,0.001,0c0.001-0.002,0.014-0.026,0.014-0.026
		h0.046h27.11h0.115C383.746,580.033,383.719,580.094,383.704,580.128C383.704,580.128,383.704,580.128,383.704,580.128z
		 M152.521,605.876c-20.548,0-25.005-16.294-9.954-36.394c15.051-20.1,43.91-36.394,64.459-36.394
		c20.549,0,25.005,16.294,9.954,36.394C201.929,589.582,173.069,605.876,152.521,605.876z M554.85,600.827l-1.747,3.069
		c-0.971,1.706-2.783,2.76-4.746,2.76H223.701c-3.541,0-5.314-4.281-2.81-6.785c0.745-0.745,1.756-1.164,2.81-1.164h312.247
		c0,0,7.492,0.502,10.129-4.27C550.474,589.64,558.067,595.172,554.85,600.827z M587.106,531.589l-20.511,13.285
		c-0.423,0.274-0.915,0.419-1.419,0.419h-4.313c-3.349,0-3.539-4.956-0.199-5.213c0.4-0.031,0.788-0.153,1.134-0.358l3.765-2.236
		c2.282-1.355,1.322-4.855-1.332-4.855H457.684c-0.287,0-0.572,0.047-0.844,0.141l-5.916,2.024c-3.039,1.04-4.908-3.261-2.074-4.773
		l5.486-2.928c0.378-0.202,0.8-0.307,1.229-0.307h130.121C588.288,526.788,589.289,530.175,587.106,531.589z M1044.241,549.904
		c27.01,0,11.95,84.139,11.948,84.153c-0.001-0.014-0.932-77.4-14.546-77.4c-4.137,0-9.744,9.686-15.543,23.136
		c0.113-0.012,0.223-0.082,0.337-0.082c8.398,0,15.206,32.827,15.206,73.321c0,1.469-0.027,2.903-0.045,4.35
		c0.018,1.285,0.045,2.559,0.045,3.863c0,35.958-6.808,65.108-15.206,65.108c-8.398,0-15.206-29.15-15.206-65.108
		c0-1.304,0.027-2.577,0.045-3.863c-0.018-1.447-0.045-2.881-0.045-4.35c0-15.005,0.938-28.944,2.543-40.563
		c-8.512,24.922-15.245,48.775-15.245,48.775l7.793,6.577c-3.637,32.726-42.077,57.66-42.077,57.66
		c26.493-22.856,32.207-45.193,33.765-50.983c1.558-5.79-8.312-6.677-8.312-6.677S1017.229,549.904,1044.241,549.904z
		 M979.841,669.391c0.369,0.315,8.552,7.562-3.13,20.768c-4.978,5.627-13.292,12.156-21.298,17.859
		c-13.105,9.333-28.566,14.783-44.622,15.819l-24.113,1.556c-0.094,0.006-0.125-0.13-0.031-0.146
		c7.278-1.309,41.763-8.083,54.742-21.062c4.975-4.975,9.221-9.525,12.654-13.358c4.188-4.676,0.888-12.095-5.389-12.095h-42.092
		c-2.852,0-2.995-4.228-0.149-4.419c35.653-2.394,72.642-4.879,73.404-4.93C979.836,669.379,979.826,669.378,979.841,669.391z
		 M906.612,434.234c6.266,2.422,21.552,9.922,31.269,28.117c12.103,22.663,19.366,36.453,18.098,49.316
		c-0.065,0.653-0.635,1.147-1.291,1.147h-22.143c-1.142,0-1.713-1.381-0.906-2.188l10.836-10.836
		c0.808-0.807,0.236-2.188-0.906-2.188h-5.358c-1.142,0-1.713-1.381-0.906-2.188l3.78-3.78c0.807-0.807,0.235-2.188-0.907-2.188
		h-5.633c-1.142,0-1.713-1.381-0.906-2.188l2.772-2.772c0.807-0.807,0.235-2.188-0.907-2.188h-2.793
		c-1.142,0-1.713-1.38-0.905-2.188l0.71-0.71c0.807-0.807,0.235-2.188-0.907-2.188h-1.097c-1.142,0-1.714-1.381-0.906-2.188
		c0.807-0.807,0.236-2.188-0.906-2.188h-1.773c-2.445,0-4.656-1.453-5.625-3.698l-14.334-33.195
		C904.507,434.895,905.543,433.82,906.612,434.234z M850.92,426.682c-2.359-5.633,2.696-11.505,8.615-10.007
		c10.333,2.616,24.015,7.286,33.146,15.045c0.859,0.73,1.505,1.677,1.939,2.717l23.191,55.585c0.1,0.242,0.184,0.475,0.259,0.726
		c0.888,2.988,6.236,22.338-4.307,22.338h-33.671c-3.726,0-6.874-2.775-7.307-6.476C871.296,493.878,866.374,463.587,850.92,426.682
		z M690.053,715.859c1.695-1.041,3.364-2.126,5.003-3.255c19.965-13.759,34.251-33.871,41.874-56.791
		c4.374-13.149,6.45-26.977,10.861-40.184c4.564-13.659,10.233-26.949,16.943-39.692c8.727-16.576,22.279-42.438,44.71-39.896
		c20.568,2.331,25.227,35.848,26.067,57.645c0.098,2.541-3.521,3.126-4.206,0.677c-4.88-17.434-14.28-41.343-29.133-41.343
		c-8.021,0-16.959,9.787-25.388,23.356c1.429-0.321,2.879-0.5,4.35-0.5c21.66,0,39.22,35.736,39.22,79.818
		c0,44.082-17.56,79.818-39.22,79.818c-19.423,0-35.545-28.737-38.667-66.459c-0.18-2.164-3.072-2.775-4.047-0.835
		c-8.579,17.083-25.734,40.591-46.303,51.397C689.682,720.895,687.709,717.298,690.053,715.859z M613.388,605.876
		c-5.136,0-9.268-1.018-12.341-2.86c-1.536-0.921-2.807-2.048-3.808-3.356c-1.999-2.616-2.914-5.958-2.688-9.83
		c0.113-1.936,0.51-4.005,1.198-6.182c1.378-4.354,3.922-9.141,7.684-14.166c0.94-1.256,1.936-2.498,2.979-3.721
		c2.086-2.447,4.367-4.822,6.798-7.101c4.863-4.558,10.33-8.733,16.055-12.327c2.862-1.798,5.789-3.45,8.738-4.933
		c2.949-1.483,5.918-2.798,8.865-3.918c4.421-1.681,8.794-2.926,12.972-3.653c2.785-0.485,5.483-0.74,8.052-0.74l0,0h0.001
		c6.422,0,11.271,1.591,14.445,4.392c5.079,4.482,5.868,12.062,1.94,21.179c-1.473,3.419-3.609,7.054-6.431,10.823
		c-3.763,5.025-8.389,9.812-13.532,14.166c-2.572,2.177-5.272,4.246-8.059,6.182C642.32,599.511,626.231,605.876,613.388,605.876z
		 M389.612,687.829c0.201-0.205,0.43-0.377,0.652-0.559c0.17-0.139,0.325-0.292,0.506-0.417c0.251-0.172,0.526-0.304,0.797-0.446
		c0.18-0.095,0.348-0.21,0.536-0.291c0.315-0.135,0.652-0.222,0.987-0.315c0.167-0.047,0.322-0.117,0.494-0.153
		c0.514-0.107,1.045-0.165,1.59-0.165h0.001h132.474h0.509c3.565,0,6.538,2.409,7.464,5.678c0.032,0.107,0.072,0.211,0.099,0.32
		c0.07,0.293,0.102,0.596,0.138,0.9c0.022,0.182,0.074,0.354,0.083,0.54c0.003,0.06-0.012,0.116-0.01,0.175
		c0.001,0.06,0.018,0.117,0.018,0.178c0,0.234-0.048,0.453-0.068,0.682c-0.023,0.249-0.031,0.5-0.075,0.742
		c-0.052,0.28-0.141,0.543-0.221,0.811c-0.068,0.227-0.122,0.46-0.21,0.678c-0.107,0.264-0.248,0.506-0.382,0.755
		c-0.107,0.2-0.2,0.407-0.324,0.596c-0.156,0.239-0.345,0.45-0.526,0.669c-0.141,0.171-0.267,0.353-0.422,0.512
		c-0.205,0.209-0.44,0.385-0.666,0.57c-0.165,0.134-0.315,0.284-0.49,0.404c-0.255,0.176-0.538,0.312-0.815,0.456
		c-0.176,0.092-0.338,0.203-0.52,0.282c-0.315,0.135-0.652,0.222-0.987,0.315c-0.167,0.047-0.322,0.117-0.494,0.153
		c-0.514,0.107-1.045,0.165-1.59,0.165h-0.001H395.683h-0.509c-3.566,0-6.54-2.41-7.465-5.681c-0.033-0.106-0.071-0.208-0.098-0.316
		c-0.07-0.294-0.103-0.598-0.138-0.903c-0.022-0.182-0.074-0.353-0.083-0.539c-0.003-0.06,0.012-0.115,0.01-0.175
		c-0.001-0.06-0.018-0.116-0.018-0.177c0-0.233,0.048-0.453,0.068-0.681c0.022-0.25,0.03-0.502,0.075-0.744
		c0.052-0.278,0.139-0.539,0.22-0.805c0.068-0.23,0.123-0.464,0.212-0.685c0.105-0.26,0.245-0.499,0.377-0.744
		c0.109-0.204,0.203-0.416,0.329-0.608c0.156-0.236,0.343-0.445,0.522-0.662C389.328,688.174,389.456,687.989,389.612,687.829z
		 M223.126,687.828c0.199-0.203,0.427-0.374,0.648-0.555c0.171-0.14,0.327-0.295,0.509-0.42c0.25-0.172,0.526-0.304,0.797-0.446
		c0.181-0.095,0.348-0.21,0.536-0.291c0.312-0.134,0.647-0.22,0.978-0.312c0.17-0.047,0.328-0.12,0.503-0.156
		c0.514-0.107,1.045-0.165,1.591-0.165h132.474h0.508c3.567,0,6.542,2.411,7.466,5.683c0.031,0.105,0.07,0.207,0.097,0.313
		c0.07,0.296,0.104,0.601,0.139,0.909c0.022,0.18,0.074,0.35,0.082,0.534c0.003,0.059-0.012,0.114-0.011,0.173
		c0.001,0.061,0.018,0.118,0.018,0.18c0,0.236-0.049,0.459-0.07,0.69c-0.022,0.246-0.029,0.493-0.074,0.732
		c-0.053,0.281-0.141,0.547-0.222,0.817c-0.068,0.226-0.122,0.457-0.21,0.674c-0.106,0.263-0.247,0.503-0.38,0.751
		c-0.109,0.202-0.201,0.411-0.327,0.602c-0.156,0.239-0.344,0.45-0.526,0.669c-0.141,0.17-0.266,0.352-0.421,0.51
		c-0.207,0.211-0.442,0.388-0.672,0.575c-0.163,0.133-0.312,0.281-0.486,0.401c-0.254,0.174-0.533,0.309-0.808,0.453
		c-0.178,0.094-0.342,0.207-0.528,0.286c-0.311,0.133-0.644,0.218-0.974,0.311c-0.171,0.048-0.33,0.12-0.505,0.157
		c-0.514,0.107-1.045,0.165-1.591,0.165H229.196h-0.508c-3.569,0-6.543-2.412-7.468-5.684c-0.031-0.104-0.069-0.205-0.096-0.311
		c-0.071-0.296-0.104-0.603-0.139-0.911c-0.022-0.18-0.074-0.349-0.082-0.533c-0.003-0.059,0.012-0.114,0.01-0.173
		c-0.001-0.061-0.018-0.118-0.018-0.179c0-0.236,0.049-0.458,0.07-0.689c0.022-0.246,0.03-0.495,0.074-0.734
		c0.052-0.278,0.14-0.539,0.22-0.806c0.07-0.231,0.124-0.466,0.213-0.687c0.104-0.256,0.242-0.491,0.371-0.733
		c0.111-0.208,0.207-0.423,0.335-0.619c0.152-0.232,0.337-0.438,0.513-0.652C222.836,688.179,222.966,687.991,223.126,687.828z
		 M290.067,778.708c10.454-4.595,23.963-15.05,37.815-38.125c0.014-0.023,0.038-0.037,0.065-0.037h148.479
		c0.027,0,0.047,0.004,0.06,0.028c0.501,0.902,12.969,23.122,29.964,34.677c-60.484,0.424-120.967,1.237-181.45,2.558
		C313.355,778.078,301.711,778.409,290.067,778.708z M575.669,774.952c9.97-5.946,22.017-16.589,30.128-35.4
		c0.012-0.027,0.039-0.045,0.068-0.045h48.212c0.03,0,0.049-0.001,0.061,0.027c0.384,0.904,10.335,24.091,26.293,35.638
		c-26.81-0.166-53.62-0.274-80.43-0.279C591.889,774.892,583.779,774.939,575.669,774.952z M795.876,776.404
		c9.414-5.881,21.451-18.238,32.769-44.124c0.012-0.027,0.038-0.045,0.068-0.045h92.359c0.033,0,0.06,0.014,0.07,0.046
		c0.447,1.497,11.915,39.228,29.871,47.595c-25.338-0.749-50.676-1.426-76.014-2.029
		C848.625,777.27,822.251,776.807,795.876,776.404z"/>
	<path fill="#9DC18E" d="M122.683,669.853c0.011,0.013,0.019,0.028,0.03,0.042c0.003,0.003,0.004,0.001,0.004,0.005
		c0,0.003,0.01,0.107,0.014,0.152c-0.005-0.052-0.014-0.153-0.014-0.153C122.705,669.884,122.695,669.868,122.683,669.853z"/>
	<path fill="#9DC18E" d="M111.606,649.251c-0.271-0.818-0.541-1.637-0.784-2.47C111.065,647.615,111.334,648.432,111.606,649.251z"
		/>
	<path fill="#9DC18E" d="M113.713,654.847c-0.329-0.769-0.641-1.547-0.943-2.331C113.072,653.301,113.384,654.078,113.713,654.847z"
		/>
	<path fill="#9DC18E" d="M109.924,643.36c-0.203-0.833-0.421-1.658-0.598-2.503C109.504,641.702,109.721,642.527,109.924,643.36z"/>
	<path fill="#9DC18E" d="M116.263,660.169c-0.371-0.689-0.71-1.398-1.057-2.102C115.553,658.772,115.892,659.48,116.263,660.169z"/>
	<path fill="#9DC18E" d="M123.155,673.835c-0.056-0.457-0.115-0.923-0.158-1.304C123.042,672.915,123.099,673.373,123.155,673.835z"
		/>
	<path fill="#9DC18E" d="M122.955,672.155c-0.044-0.392-0.088-0.78-0.119-1.071C122.867,671.378,122.91,671.757,122.955,672.155z"/>
	<path fill="#9DC18E" d="M122.822,670.944c-0.031-0.299-0.059-0.567-0.076-0.736C122.762,670.374,122.789,670.64,122.822,670.944z"
		/>
	<path fill="#9DC18E" d="M119.26,665.191c-0.363-0.545-0.685-1.119-1.031-1.676C118.576,664.072,118.897,664.646,119.26,665.191z"/>
	<path fill="#9DC18E" d="M108.642,637c-0.12-0.747-0.271-1.481-0.373-2.236C108.371,635.519,108.522,636.252,108.642,637z"/>
</g>
</svg>
